Coordinates
version=1
nRows=7
nColumns=40
inDegrees=yes

Units are S.I. units (second, meters, Newtons, ...)
Angles are in degrees.

endheader
time	pelvis_tilt	pelvis_list	pelvis_rotation	pelvis_tx	pelvis_ty	pelvis_tz	hip_flexion_r	hip_adduction_r	hip_rotation_r	knee_angle_r	knee_angle_r_beta	ankle_angle_r	subtalar_angle_r	mtp_angle_r	hip_flexion_l	hip_adduction_l	hip_rotation_l	knee_angle_l	knee_angle_l_beta	ankle_angle_l	subtalar_angle_l	mtp_angle_l	lumbar_extension	lumbar_bending	lumbar_rotation	arm_flex_r	arm_add_r	arm_rot_r	elbow_flex_r	pro_sup_r	wrist_flex_r	wrist_dev_r	arm_flex_l	arm_add_l	arm_rot_l	elbow_flex_l	pro_sup_l	wrist_flex_l	wrist_dev_l
      1.90000000	      3.36658030	     -6.42302116	      3.38261331	      0.20879128	      0.90328503	      1.44905453	      7.54018337	      7.25117849	    -19.71890132	    -18.39542626	     -0.32106076	      4.12310080	      6.16159759	     -4.80918623	      7.31895301	     12.31234368	      8.26407497	    -58.53306019	     -1.02159462	     -6.10081619	      7.95388054	     -7.01314236	    -10.35601126	      9.19040136	      0.35345630	      4.67267412	    -11.26349518	     18.85161026	     15.46062531	     89.95437384	      0.00000000	      0.00000000	      4.79393218	      6.53548779	    -14.41012296	     16.85000019	     89.95437384	      0.00000000	      0.00000000
      1.91000000	      3.54118384	     -6.16894381	      3.29223105	      0.21593860	      0.90387306	      1.44979683	      6.89786316	      7.07081059	    -19.57583233	    -18.54994478	     -0.32375761	      4.25329081	      5.97855273	     -4.76622307	      8.28438056	     11.96210569	      8.05123651	    -59.08398215	     -1.03121002	     -5.73666271	      7.83541484	     -6.99873131	    -10.62988141	      8.85564016	      0.84446712	      5.08748837	    -11.49849958	     18.82509871	     15.58955375	     89.95437384	      0.00000000	      0.00000000	      4.42096392	      6.55003418	    -14.37730644	     16.93694204	     89.95437384	      0.00000000	      0.00000000
      1.92000000	      3.80559368	     -6.01820395	      3.51254479	      0.22316338	      0.90463445	      1.45012975	      5.96780145	      7.12063534	    -19.14822434	    -18.32696996	     -0.31986597	      5.00744072	      5.93042048	     -4.86545049	      9.17035722	     11.56077763	      7.44687828	    -59.42109398	     -1.03709374	     -4.00389345	      7.88646738	     -7.32724457	    -10.88089351	      8.68076459	      0.87341527	      5.82519150	    -11.57981132	     18.95216088	     15.13966894	     89.95437384	      0.00000000	      0.00000000	      4.08885558	      6.57881115	    -14.27969151	     16.75312905	     89.95437384	      0.00000000	      0.00000000
      1.93000000	      4.00088169	     -5.73063017	      3.55720386	      0.23043026	      0.90533132	      1.45056196	      5.18116042	      6.96225462	    -18.83994810	    -18.27014350	     -0.31887416	      5.45980387	      5.70063516	     -4.89185604	     10.03188151	     10.95924845	      6.96398372	    -59.46920922	     -1.03793350	     -2.71179557	      7.53735763	     -7.62795455	    -11.07750929	      8.33213984	      1.04391976	      6.42529004	    -11.71270420	     19.00672787	     14.96169345	     89.95437384	      0.00000000	      0.00000000	      3.52990365	      6.66432256	    -14.81723373	     16.91649712	     89.95437384	      0.00000000	      0.00000000
      1.94000000	      4.10542001	     -5.44992886	      3.53746910	      0.23753658	      0.90591563	      1.45104311	      4.50610433	      6.78869342	    -18.55842954	    -18.24139648	     -0.31837243	      5.82952255	      5.53758242	     -4.88807761	     10.93767156	     10.39287149	      6.63860174	    -59.28362894	     -1.03469452	     -1.56639698	      6.96189851	     -7.90562748	    -11.19239117	      7.98563213	      1.30222923	      6.98273816	    -11.86402497	     18.97075053	     14.83564629	     89.95437384	      0.00000000	      0.00000000	      3.07688908	      6.78527040	    -15.18576458	     17.06281151	     89.95437384	      0.00000000	      0.00000000
      1.95000000	      4.44959457	     -5.23139577	      3.52386864	      0.24500430	      0.90685146	      1.45174050	      3.46922142	      6.75916144	    -18.19073995	    -18.01283453	     -0.31438327	      6.07415096	      4.95818852	     -5.56437595	     11.40866421	      9.93559990	      6.33424685	    -58.60489172	     -1.02284832	     -1.17038016	      6.76004802	    -13.62106045	    -11.52575283	      7.68385747	      1.68389138	      7.45249473	    -11.94927764	     18.27113155	     14.76553062	     89.95437384	      0.00000000	      0.00000000	      2.56926992	      7.15002045	    -16.61264702	     17.56418749	     89.95437384	      0.00000000	      0.00000000
      1.96000000	      4.44097805	     -4.97891073	      3.47099025	      0.25207169	      0.90719627	      1.45219337	      2.94084784	      6.57502458	    -17.89490965	    -18.01026290	     -0.31433839	      6.47291128	      4.93787929	     -5.53676170	     12.37138535	      9.32996560	      5.98871840	    -58.02117150	     -1.01266048	     -0.27783641	      6.15919258	    -13.60784195	    -11.50615186	      7.35517286	      1.92500761	      7.96993722	    -12.12002652	     18.18541381	     14.73763700	     89.95437384	      0.00000000	      0.00000000	      2.10184412	      7.23639540	    -16.70087972	     17.73825550	     89.95437384	      0.00000000	      0.00000000
